<svg fill="#ffffff" xmlns="http://www.w3.org/2000/svg"  viewBox="0 0 50 50" width="50px" height="50px"><path d="M 25 2 C 12.309295 2 2 12.309295 2 25 C 2 37.690705 12.309295 48 25 48 C 37.690705 48 48 37.690705 48 25 C 48 12.309295 37.690705 2 25 2 z M 25 4 C 36.609824 4 46 13.390176 46 25 C 46 36.609824 36.609824 46 25 46 C 13.390176 46 4 36.609824 4 25 C 4 13.390176 13.390176 4 25 4 z M 21.259766 9.2382812 C 20.676353 9.2882902 20.055198 9.5149195 19.615234 10.001953 C 19.251016 10.405138 19.145725 10.970755 19.085938 11.541016 C 19.061348 11.556236 18.911837 11.645461 18.609375 11.75 A 1.0001 1.0001 0 0 0 18.607422 11.75 C 18.263073 11.86948 17.813203 12.024932 17.408203 12.441406 C 17.003203 12.85788 16.782071 13.554334 16.861328 14.232422 C 16.931518 14.833521 17.356374 15.29376 17.755859 15.542969 C 18.155345 15.792178 18.578252 15.927405 19.037109 16.044922 C 19.954824 16.279955 21.031593 16.413625 22.082031 16.591797 C 23.13247 16.769968 24.150453 16.998593 24.826172 17.314453 C 25.397098 17.581329 25.647355 17.814573 25.746094 18.136719 C 25.670599 18.177011 25.556527 18.232084 25.333984 18.292969 C 24.848959 18.425662 24.086065 18.521809 23.203125 18.617188 C 21.437245 18.807945 19.171652 19.008315 17.136719 20.009766 A 1.0001 1.0001 0 0 0 17.134766 20.009766 C 12.947221 22.080572 11.630115 25.904537 11.601562 28.892578 C 10.262271 29.293525 9.2792969 30.469626 9.2792969 31.859375 C 9.2792969 33.573875 10.687844 34.982422 12.402344 34.982422 C 12.833135 34.982422 13.249628 34.889115 13.652344 34.75 C 13.598724 35.082473 13.526715 35.431683 13.412109 35.787109 C 13.155433 36.582365 13.447309 37.563008 14.041016 38.042969 C 14.635186 38.523305 15.331958 38.693997 16.103516 38.816406 C 17.64663 39.061225 19.573864 39.001617 21.359375 38.970703 C 22.85457 38.971006 24.237821 39.003526 25.326172 38.941406 C 25.872758 38.910206 26.341065 38.865556 26.785156 38.730469 C 27.007202 38.662929 27.231924 38.574948 27.464844 38.388672 C 27.697764 38.202396 27.935414 37.856884 27.974609 37.478516 C 28.065859 36.59643 27.936299 35.777203 27.537109 35.109375 C 27.137917 34.441547 26.503512 33.987448 25.804688 33.701172 C 25.721377 33.667042 25.611058 33.669222 25.525391 33.638672 C 26.326028 33.197886 27.068492 32.631295 27.574219 31.78125 C 28.202505 32.845041 28.855586 34.008996 29.455078 35.078125 C 29.990621 36.033208 30.481121 36.901702 30.892578 37.560547 C 31.098307 37.889969 31.281649 38.16445 31.466797 38.396484 C 31.559367 38.512501 31.647487 38.618752 31.779297 38.732422 C 31.911107 38.846092 32.075134 39.044922 32.566406 39.044922 C 33.133355 39.044922 38.017578 38.957031 38.017578 38.957031 A 1.0001 1.0001 0 0 0 39 37.957031 C 39 36.797686 38.77018 35.886292 38.337891 35.189453 C 37.905601 34.492614 37.281112 34.061812 36.708984 33.822266 C 36.136857 33.582719 35.606128 33.499384 35.251953 33.427734 C 35.122111 33.401467 35.070383 33.372032 35.015625 33.347656 C 34.984331 33.259217 34.944702 33.153043 34.902344 32.978516 C 34.799734 32.555733 34.656354 31.921791 34.404297 31.072266 A 1.0001 1.0001 0 0 0 34.402344 31.068359 C 33.993003 29.703591 34.162807 29.487838 34.365234 28.595703 C 34.535689 27.844476 34.669515 26.726757 34.390625 24.908203 C 35.127638 24.833171 35.838365 24.703367 36.476562 24.5 C 37.439267 24.193227 38.340681 23.771712 38.761719 22.802734 A 1.0001 1.0001 0 0 0 38.769531 22.785156 C 39.386675 21.288827 38.788806 19.656453 37.904297 18.1875 C 37.021983 16.722192 35.75239 15.385423 34.271484 14.689453 C 33.522825 14.321934 32.71994 14.105385 31.912109 14.037109 C 31.3515 13.98973 30.790485 14.016551 30.242188 14.105469 C 29.770454 13.479953 29.104938 12.89455 28.294922 12.271484 C 27.274918 11.486897 26.055136 10.714167 24.835938 10.136719 C 23.616737 9.5592698 22.426592 9.1382632 21.259766 9.2382812 z M 21.429688 11.232422 C 21.904142 11.191752 22.92009 11.444011 23.978516 11.945312 C 25.036941 12.446615 26.167144 13.158197 27.076172 13.857422 C 27.985199 14.556647 28.688385 15.318171 28.828125 15.570312 A 1.0001 1.0001 0 0 0 28.892578 15.673828 A 1.0003187 1.0003187 0 0 0 30.050781 16.1875 C 31.116615 15.89139 32.374989 15.980912 33.396484 16.484375 A 1.0001 1.0001 0 0 0 33.416016 16.494141 C 34.358366 16.934654 35.482665 18.043656 36.191406 19.220703 C 36.895815 20.390554 37.086309 21.586014 36.919922 22.009766 C 36.908182 22.030376 36.570844 22.370147 35.869141 22.59375 C 35.162344 22.818977 34.19216 22.962538 33.210938 22.982422 A 1.0002103 1.0002103 0 0 0 32.232422 23.988281 A 1.0001 1.0001 0 0 0 32.255859 24.273438 C 32.755093 26.574022 32.594136 27.360682 32.414062 28.154297 C 32.23399 28.947912 31.985665 29.973346 32.486328 31.642578 C 32.719823 32.429818 32.849705 33.00091 32.958984 33.451172 C 33.067367 33.89774 33.102294 34.246484 33.447266 34.685547 C 33.927633 35.310097 34.455591 35.307776 34.855469 35.388672 C 35.258982 35.470302 35.634424 35.54189 35.935547 35.667969 C 36.23667 35.794047 36.450274 35.940449 36.638672 36.244141 C 36.719432 36.374322 36.730302 36.757823 36.792969 36.978516 C 35.53996 36.999616 33.6207 37.030862 32.955078 37.039062 C 32.859168 36.909821 32.74371 36.74833 32.589844 36.501953 C 32.219488 35.908923 31.732426 35.050526 31.199219 34.099609 C 30.132805 32.197775 28.888981 29.933157 27.816406 28.421875 A 1.0003736 1.0003736 0 0 0 27.775391 28.369141 C 27.659069 28.088145 27.517354 27.810571 27.333984 27.541016 C 26.44734 26.237634 24.615467 25.376261 22.083984 25.806641 A 1.0001 1.0001 0 1 0 22.419922 27.777344 C 24.423439 27.436724 25.230035 28.002147 25.681641 28.666016 C 26.133246 29.329884 26.085325 30.343392 25.958984 30.607422 A 1.0001 1.0001 0 0 0 25.958984 30.609375 C 25.553939 31.462713 24.613784 32.048427 23.498047 32.429688 C 22.38231 32.810947 21.208309 32.955427 20.466797 33.089844 A 1.0001 1.0001 0 0 0 20.644531 35.072266 C 22.613448 35.072266 24.201774 35.204583 25.046875 35.550781 C 25.469425 35.72388 25.68724 35.910828 25.822266 36.136719 C 25.907546 36.279384 25.901496 36.591221 25.923828 36.853516 C 25.735434 36.888196 25.55318 36.925892 25.212891 36.945312 C 24.264814 36.999423 22.87297 36.970703 21.341797 36.970703 A 1.0001 1.0001 0 0 0 21.324219 36.970703 C 19.52873 37.001793 17.633651 37.034983 16.416016 36.841797 C 15.807198 36.745207 15.388923 36.562695 15.296875 36.488281 C 15.286271 36.47971 15.282792 36.484235 15.275391 36.482422 C 15.286476 36.465928 15.299378 36.448875 15.314453 36.402344 A 1.0001 1.0001 0 0 0 15.316406 36.400391 C 15.534083 35.72531 15.656374 35.067783 15.710938 34.490234 C 15.765498 33.912686 15.771446 33.450497 15.660156 32.990234 A 1.0001 1.0001 0 0 0 15.464844 32.578125 A 1.0001 1.0001 0 0 0 13.96875 32.316406 C 13.475989 32.714086 12.729942 32.982422 12.402344 32.982422 C 11.812844 32.982422 11.279297 32.448875 11.279297 31.859375 C 11.279297 31.269875 11.737695 30.734375 12.585938 30.734375 A 1.0001 1.0001 0 0 0 13.583984 29.914062 A 1.0001 1.0001 0 0 0 13.607422 29.585938 C 13.42661 27.120476 14.220327 23.684908 18.019531 21.804688 C 19.605598 21.024137 21.638348 20.797711 23.417969 20.605469 C 24.307779 20.509349 25.127791 20.423338 25.861328 20.222656 C 26.594866 20.021975 27.394494 19.656543 27.720703 18.804688 A 1.0001 1.0001 0 0 0 27.783203 18.298828 A 1.0006377 1.0006377 0 0 0 27.78125 18.074219 C 27.627465 16.825691 26.675438 15.973015 25.671875 15.503906 C 24.668312 15.034798 23.519702 14.806344 22.416016 14.619141 C 21.312329 14.431937 20.246519 14.290107 19.533203 14.107422 C 19.19125 14.019842 18.950876 13.919811 18.84375 13.857422 C 18.84505 13.858622 18.84245 13.837248 18.84375 13.835938 C 18.85345 13.825938 18.997018 13.732797 19.261719 13.640625 C 19.672925 13.4985 20.014079 13.364295 20.34375 13.107422 C 20.673421 12.850548 20.972575 12.342852 20.976562 11.878906 C 20.980062 11.498992 21.060742 11.382662 21.097656 11.341797 C 21.134576 11.300927 21.192455 11.252757 21.429688 11.232422 z M 33 19 A 1 1 0 0 0 32 20 A 1 1 0 0 0 33 21 A 1 1 0 0 0 34 20 A 1 1 0 0 0 33 19 z"/></svg>